<svg width="48" height="48" viewBox="0 0 48 48" fill="none" xmlns="http://www.w3.org/2000/svg">
<path d="M30.3999 42.15L13.5499 25.35C13.3499 25.15 13.2086 24.9333 13.1259 24.7C13.0419 24.4667 12.9999 24.2167 12.9999 23.95C12.9999 23.6833 13.0419 23.4333 13.1259 23.2C13.2086 22.9667 13.3499 22.75 13.5499 22.55L30.3999 5.7C30.8666 5.23333 31.4499 5 32.1499 5C32.8499 5 33.4499 5.25 33.9499 5.75C34.4499 6.25 34.6999 6.83333 34.6999 7.5C34.6999 8.16667 34.4499 8.75 33.9499 9.25L19.2499 23.95L33.9499 38.65C34.4166 39.1167 34.6499 39.6913 34.6499 40.374C34.6499 41.058 34.3999 41.65 33.8999 42.15C33.3999 42.65 32.8166 42.9 32.1499 42.9C31.4833 42.9 30.8999 42.65 30.3999 42.15Z" fill="black"/>
</svg>
